<?xml version="1.0" standalone="no"?>
<!DOCTYPE svg PUBLIC "-//W3C//DTD SVG 20010904//EN"
 "http://www.w3.org/TR/2001/REC-SVG-20010904/DTD/svg10.dtd">
<svg version="1.0" xmlns="http://www.w3.org/2000/svg"
 width="2178.000000pt" height="398.000000pt" viewBox="0 0 2178.000000 398.000000"
 preserveAspectRatio="xMidYMid meet">

<g transform="translate(0.000000,398.000000) scale(0.100000,-0.100000)"
fill="#FFCC00" stroke="none">
<path d="M9833 3689 c-295 -29 -532 -215 -620 -484 -33 -104 -43 -311 -20
-421 34 -159 124 -312 236 -401 76 -60 219 -128 315 -148 116 -26 312 -17 421
18 209 68 367 231 419 433 29 113 43 104 -162 104 l-178 0 -22 -53 c-40 -96
-127 -159 -246 -179 -129 -21 -266 37 -341 146 -128 186 -88 479 82 593 98 66
244 79 354 31 53 -22 120 -88 146 -143 l17 -35 163 -1 c90 -1 171 -2 181 -3
23 -1 18 46 -13 131 -102 282 -394 446 -732 412z"/>
<path d="M11332 3638 c-16 -35 -162 -352 -326 -705 -181 -394 -296 -654 -296
-673 l0 -30 180 0 179 0 42 90 42 90 287 0 287 0 41 -90 42 -90 180 0 180 0 0
30 c0 22 -443 999 -636 1403 l-18 37 -78 0 -78 0 -28 -62z m185 -706 c39 -92
75 -175 78 -184 7 -17 -5 -18 -155 -18 -150 0 -162 1 -155 18 31 82 149 352
154 352 3 0 38 -76 78 -168z"/>
<path d="M14385 3686 c-277 -64 -472 -245 -545 -506 -45 -162 -34 -384 26
-535 115 -286 411 -464 737 -442 122 8 193 28 307 84 77 38 109 61 176 128 68
67 90 97 127 176 61 126 79 213 79 369 -1 146 -22 243 -77 354 -86 173 -217
283 -422 352 -66 23 -99 28 -213 30 -91 3 -155 -1 -195 -10z m326 -378 c150
-74 230 -246 200 -429 -34 -205 -185 -330 -385 -317 -92 6 -168 42 -230 108
-152 163 -136 457 32 595 18 15 59 38 90 52 48 20 71 23 147 21 74 -3 100 -8
146 -30z"/>
<path d="M6570 2955 l0 -725 185 0 185 0 0 215 0 216 97 -3 96 -3 123 -210
123 -210 212 -3 212 -2 -7 31 c-3 18 -67 131 -141 251 -74 120 -135 221 -135
225 0 3 26 34 59 67 100 105 145 222 144 371 -2 200 -98 361 -267 447 -102 52
-155 58 -538 58 l-348 0 0 -725z m718 367 c48 -35 66 -76 67 -152 0 -73 -20
-118 -68 -154 -26 -19 -44 -21 -188 -24 l-159 -3 0 181 0 182 158 -4 c146 -3
159 -5 190 -26z"/>
<path d="M8020 2955 l0 -725 460 0 460 0 0 165 0 165 -275 0 -275 0 0 125 0
125 245 0 245 0 0 165 0 165 -245 0 -245 0 0 105 0 105 265 0 265 0 0 165 0
165 -450 0 -450 0 0 -725z"/>
<path d="M12360 2956 l0 -726 310 0 c405 0 487 15 646 122 132 88 230 232 275
404 29 110 29 287 0 398 -66 251 -232 425 -473 497 -68 21 -98 23 -415 27
l-343 4 0 -726z m694 354 c70 -36 123 -92 159 -168 30 -64 32 -73 32 -187 0
-114 -2 -123 -32 -187 -37 -78 -97 -142 -162 -171 -38 -18 -70 -22 -183 -25
l-138 -4 0 387 0 387 138 -4 c122 -3 142 -6 186 -28z"/>
<path d="M17614 1748 c3 -57 11 -285 17 -508 5 -223 12 -411 14 -417 3 -10 48
-13 179 -13 l174 0 6 88 c3 48 8 260 11 472 3 212 8 406 11 433 l6 47 -212 0
-212 0 6 -102z"/>
<path d="M8332 1825 c-281 -65 -493 -278 -548 -554 -25 -125 -16 -328 19 -436
75 -229 254 -399 493 -467 105 -30 304 -32 409 -4 327 86 525 335 542 681 12
233 -47 413 -185 565 -84 94 -191 159 -332 202 -86 27 -307 34 -398 13z m303
-366 c160 -60 242 -197 233 -392 -3 -77 -9 -103 -35 -159 -59 -126 -162 -197
-298 -206 -175 -11 -314 84 -366 251 -30 96 -24 238 12 317 63 136 175 209
326 210 50 0 90 -7 128 -21z"/>
<path d="M12287 1133 c-180 -389 -327 -720 -327 -735 l0 -28 181 0 181 0 41
90 42 90 288 0 287 0 42 -90 41 -90 183 0 c182 0 184 0 184 22 0 12 -88 211
-195 442 -107 232 -255 552 -328 711 l-135 290 -79 3 -80 3 -326 -708z m486
-70 c43 -98 77 -181 77 -185 0 -5 -72 -8 -161 -8 -88 0 -159 4 -157 8 43 108
154 362 159 362 3 0 40 -80 82 -177z"/>
<path d="M13627 1823 c-4 -3 -7 -332 -7 -730 l0 -723 190 0 190 0 2 354 3 354
360 -353 360 -354 68 -1 67 0 0 725 0 725 -190 0 -190 0 -2 -351 -3 -352 -300
294 c-464 454 -424 419 -487 419 -30 0 -58 -3 -61 -7z"/>
<path d="M3680 1660 l0 -159 83 -3 82 -3 0 -400 0 -400 -92 -3 -93 -3 0 -159
0 -160 370 0 370 0 -2 163 -3 162 -72 -3 c-126 -6 -113 -52 -113 409 l0 399
85 0 85 0 0 160 0 160 -350 0 -350 0 0 -160z"/>
<path d="M4640 1095 l0 -725 190 0 190 0 2 318 3 319 149 -159 c82 -87 157
-158 166 -158 15 0 165 146 288 280 l41 45 1 -322 0 -323 190 0 190 0 0 725 0
725 -67 0 -68 0 -284 -310 c-156 -171 -287 -310 -290 -310 -3 0 -131 140 -285
310 l-279 310 -68 0 -69 0 0 -725z"/>
<path d="M6420 1095 l0 -725 185 0 185 0 0 184 0 184 193 4 c206 5 254 15 351
72 101 59 195 195 227 326 17 69 17 208 0 280 -34 143 -139 283 -255 340 -108
53 -165 60 -543 60 l-343 0 0 -725z m696 374 c137 -66 119 -349 -24 -389 -20
-5 -97 -10 -169 -10 l-133 0 0 210 0 210 142 0 c123 0 147 -3 184 -21z"/>
<path d="M9530 1096 l0 -726 185 0 185 0 0 215 0 215 95 0 95 0 26 -42 c13
-24 70 -121 125 -216 l101 -172 206 2 c200 3 205 4 208 24 2 13 -48 104 -136
248 -77 125 -140 230 -140 234 0 4 24 31 54 60 61 60 117 159 137 242 19 81
15 212 -10 291 -39 124 -127 231 -232 285 -114 57 -115 57 -521 61 l-378 4 0
-725z m717 368 c48 -36 68 -81 68 -154 0 -73 -20 -118 -68 -154 -26 -19 -44
-21 -188 -24 l-159 -3 0 181 0 182 159 -4 c144 -3 162 -5 188 -24z"/>
<path d="M10840 1655 l0 -165 175 0 175 0 0 -560 0 -560 185 0 185 0 0 560 0
560 175 0 175 0 0 165 0 165 -535 0 -535 0 0 -165z"/>
<path d="M15090 1655 l0 -165 178 -2 177 -3 0 -557 0 -558 183 0 182 0 0 560
0 560 180 0 180 0 0 165 0 165 -540 0 -540 0 0 -165z"/>
<path d="M16390 1095 l0 -725 465 0 465 0 0 165 0 165 -280 0 -280 0 0 125 0
125 248 2 247 3 3 163 2 162 -250 0 -250 0 0 105 0 105 270 0 270 0 0 165 0
165 -455 0 -455 0 0 -725z"/>
<path d="M17745 745 c-83 -29 -134 -119 -120 -211 5 -38 16 -57 48 -90 111
-111 305 -70 342 72 42 161 -106 287 -270 229z"/>
</g>
</svg>
