<?xml version="1.0" standalone="no"?>
<!DOCTYPE svg PUBLIC "-//W3C//DTD SVG 20010904//EN"
 "http://www.w3.org/TR/2001/REC-SVG-20010904/DTD/svg10.dtd">
<svg version="1.0" xmlns="http://www.w3.org/2000/svg"
 width="2178.000000pt" height="398.000000pt" viewBox="0 0 2178.000000 398.000000"
 preserveAspectRatio="xMidYMid meet">

<g transform="translate(0.000000,398.000000) scale(0.100000,-0.100000)"
fill="#FFFFFF" stroke="none">
<path d="M13820 3438 c-13 -29 -52 -115 -87 -192 -35 -76 -63 -147 -63 -157 0
-18 10 -19 144 -19 l144 0 121 137 c67 76 120 144 119 153 -2 10 -60 35 -168
72 -91 31 -170 57 -176 57 -6 1 -21 -23 -34 -51z"/>
<path d="M4381 3382 c-58 -29 -73 -60 -83 -169 -12 -127 -20 -155 -65 -232
-72 -124 -226 -259 -373 -329 -112 -53 -122 -67 -188 -267 -27 -82 -67 -186
-87 -229 -65 -135 -194 -263 -330 -327 -61 -29 -64 -33 -59 -78 17 -147 94
-861 100 -923 6 -74 8 -78 31 -78 13 0 74 16 135 36 106 36 114 37 212 31 64
-4 123 -14 161 -28 227 -80 594 -98 824 -39 180 46 361 122 423 178 93 84 102
179 25 261 -23 25 -28 35 -18 39 30 11 91 75 102 109 15 45 6 128 -19 185
l-19 44 32 37 c54 62 70 157 39 220 -9 18 -34 50 -56 73 l-39 41 42 28 c101
66 126 124 89 201 -23 47 -102 114 -182 155 -83 42 -223 58 -536 59 -122 1
-221 4 -219 8 33 58 140 232 178 289 64 95 124 220 145 303 19 73 15 225 -8
294 -33 103 -162 157 -257 108z"/>
<path d="M16928 2990 c-254 -31 -443 -175 -498 -378 -15 -57 -15 -205 1 -267
42 -171 167 -285 365 -331 36 -8 129 -21 207 -30 173 -18 209 -27 249 -63 24
-22 31 -35 32 -70 1 -37 -4 -47 -36 -76 -92 -85 -318 -87 -412 -4 -19 16 -38
43 -41 59 l-7 30 -199 0 -199 0 0 -24 c0 -13 5 -47 10 -77 53 -279 353 -451
727 -417 368 33 599 277 554 586 -21 143 -86 238 -205 299 -88 45 -156 61
-399 93 -213 28 -267 59 -267 151 0 95 90 155 230 153 45 -1 89 -7 111 -17 45
-20 89 -71 89 -103 l0 -24 201 0 202 0 -7 53 c-16 125 -84 255 -168 319 -142
108 -351 161 -540 138z"/>
<path d="M17960 2912 c0 -84 12 -499 26 -879 l6 -173 198 0 197 0 7 128 c3 70
8 294 11 497 3 204 8 403 11 443 l6 72 -231 0 -231 0 0 -88z"/>
<path d="M7101 2207 c-198 -430 -361 -795 -361 -810 l0 -27 203 0 204 0 46
100 46 100 314 0 314 0 46 -100 46 -100 200 0 201 0 0 33 c0 23 -75 196 -229
528 -126 272 -287 620 -358 774 l-129 280 -91 3 -90 3 -362 -784z m547 -94
c62 -142 76 -183 65 -187 -22 -9 -333 -7 -333 2 0 8 155 376 166 394 5 7 10 5
15 -8 4 -10 43 -101 87 -201z"/>
<path d="M10327 2215 c-251 -546 -357 -786 -357 -810 l0 -35 199 0 200 0 47
100 47 100 312 0 313 0 48 -100 48 -100 200 2 c196 3 201 3 204 24 2 12 -46
127 -105 255 -60 129 -223 483 -363 786 l-255 553 -90 0 -90 0 -358 -775z
m537 -87 c47 -108 86 -199 86 -202 0 -9 -338 -7 -343 2 -3 4 30 90 73 190 43
101 81 191 85 199 3 9 7 14 10 12 2 -3 42 -93 89 -201z"/>
<path d="M14727 2974 c-4 -4 -7 -367 -7 -806 l0 -798 215 0 215 0 0 386 c0
219 4 384 9 382 5 -1 183 -174 396 -383 l387 -380 79 -3 79 -3 0 801 0 800
-210 0 -210 0 0 -385 c0 -325 -2 -385 -14 -378 -7 4 -188 179 -401 388 l-387
380 -72 3 c-40 1 -75 0 -79 -4z"/>
<path d="M5360 2171 l0 -801 205 0 205 0 2 203 3 202 215 6 c228 6 253 10 365
66 59 31 161 130 199 196 75 128 104 315 72 467 -21 103 -83 224 -148 291 -60
62 -120 101 -217 138 l-66 25 -417 4 -418 3 0 -800z m768 415 c68 -35 102
-103 102 -204 0 -78 -20 -145 -53 -180 -44 -47 -66 -52 -242 -52 l-165 0 0
225 0 225 165 0 c123 0 173 -4 193 -14z"/>
<path d="M8570 2170 l0 -800 205 0 205 0 0 235 0 235 104 0 104 0 62 -107 c35
-60 96 -165 137 -236 l75 -127 229 0 229 0 0 33 c0 24 -39 95 -154 280 l-154
249 68 67 c112 112 162 240 162 411 -1 221 -110 404 -296 495 -121 60 -165 65
-593 65 l-383 0 0 -800z m787 404 c89 -66 107 -208 38 -300 -43 -56 -75 -64
-254 -64 l-161 0 0 196 0 195 174 -3 c159 -3 177 -5 203 -24z"/>
<path d="M11790 2170 l0 -800 413 0 c455 0 490 4 599 62 178 95 279 358 218
570 -16 55 -69 129 -122 167 l-47 35 31 35 c101 115 116 302 35 463 -39 79
-133 174 -209 211 -110 52 -151 57 -550 57 l-368 0 0 -800z m710 415 c55 -29
78 -121 45 -184 -25 -49 -67 -61 -219 -61 l-136 0 0 130 0 130 140 0 c107 0
148 -4 170 -15z m69 -600 c69 -35 82 -163 22 -217 l-31 -28 -170 -1 c-94 -1
-176 -2 -182 -3 -10 -1 -14 33 -16 132 l-3 132 176 0 c135 0 183 -3 204 -15z"/>
<path d="M13360 2170 l0 -800 510 0 510 0 0 179 0 179 -27 5 c-16 3 -152 6
-303 5 l-275 0 -3 136 -3 136 271 0 270 0 0 185 0 185 -270 0 -270 0 0 110 0
110 295 0 295 0 0 185 0 185 -500 0 -500 0 0 -800z"/>
<path d="M18109 1787 c-92 -35 -139 -102 -139 -198 0 -78 31 -135 94 -174 44
-26 58 -30 126 -30 68 0 82 3 125 30 137 85 133 285 -8 356 -52 27 -149 34
-198 16z"/>
<path d="M5424 1149 c-32 -64 -164 -352 -164 -360 0 -5 23 -9 50 -9 44 0 52 3
62 25 11 25 15 26 87 23 68 -3 77 -5 86 -25 8 -20 17 -23 62 -23 29 0 53 2 53
5 0 5 -17 42 -113 250 -73 156 -92 174 -123 114z m58 -189 l17 -40 -40 0 c-21
0 -39 2 -39 5 0 10 34 75 39 75 3 0 14 -18 23 -40z"/>
<path d="M5932 1173 c-12 -2 -38 -19 -57 -37 -31 -30 -35 -39 -35 -86 0 -45 4
-56 31 -81 17 -16 46 -31 67 -34 82 -12 107 -21 110 -36 7 -36 -91 -44 -113
-10 -3 6 -28 11 -56 11 -43 0 -49 -2 -49 -21 0 -32 69 -96 113 -104 107 -20
207 40 207 125 0 53 -39 96 -96 105 -97 16 -109 20 -112 43 -3 16 4 25 22 32
28 10 76 -2 76 -20 0 -5 23 -10 51 -10 51 0 51 0 44 28 -18 73 -104 114 -203
95z"/>
<path d="M6736 1148 c-7 -18 -44 -98 -81 -178 -98 -210 -94 -190 -31 -190 47
0 54 3 64 25 11 23 16 25 85 25 69 0 75 -2 85 -25 10 -22 18 -25 62 -25 29 0
50 5 50 11 0 5 -39 95 -87 200 -76 163 -91 189 -110 189 -16 0 -27 -10 -37
-32z m74 -224 c0 -2 -16 -4 -35 -4 -40 0 -41 3 -19 55 l16 38 19 -42 c10 -24
19 -45 19 -47z"/>
<path d="M7302 1170 c-47 -11 -109 -55 -129 -92 -27 -51 -24 -163 5 -210 43
-69 129 -103 218 -87 73 14 116 53 138 127 7 21 5 22 -48 22 -42 0 -56 -4 -56
-14 0 -8 -10 -22 -22 -30 -62 -43 -148 5 -148 83 0 52 16 86 47 100 43 20 81
13 115 -20 28 -26 37 -29 68 -24 44 8 44 8 36 41 -11 41 -68 90 -120 103 -50
12 -57 12 -104 1z"/>
<path d="M7717 1165 c-78 -27 -127 -101 -127 -190 0 -192 230 -277 357 -132
37 42 47 85 41 163 -11 126 -145 205 -271 159z m135 -114 c28 -25 33 -36 33
-76 0 -40 -5 -51 -33 -76 -43 -39 -84 -39 -123 0 -23 24 -29 38 -29 73 0 96
85 139 152 79z"/>
<path d="M9415 1103 c-20 -43 -59 -129 -87 -191 -28 -62 -55 -111 -59 -110 -5
2 -24 28 -43 58 l-34 54 23 28 c51 61 36 167 -30 208 -27 17 -49 20 -144 20
l-111 0 0 -195 0 -195 55 0 55 0 0 55 c0 51 2 55 24 55 19 0 31 -12 55 -55
l31 -55 113 0 c112 0 114 0 125 25 11 23 16 25 85 25 69 0 75 -2 85 -25 10
-22 18 -25 62 -25 29 0 50 5 50 11 0 6 -30 74 -66 152 -36 78 -75 163 -87 190
-16 36 -26 47 -44 47 -18 0 -29 -14 -58 -77z m-287 -32 c8 -5 12 -22 10 -42
-3 -33 -5 -34 -50 -37 l-48 -3 0 45 0 46 38 0 c20 0 43 -4 50 -9z m365 -106
c9 -20 17 -38 17 -40 0 -3 -16 -5 -35 -5 -19 0 -35 3 -35 7 0 14 24 73 30 73
4 0 14 -16 23 -35z"/>
<path d="M10295 1165 c-51 -20 -83 -50 -106 -100 -36 -77 -16 -188 42 -242 84
-77 219 -67 296 20 37 42 47 85 41 163 -5 60 -40 114 -96 147 -43 25 -127 31
-177 12z m137 -114 c28 -25 33 -36 33 -76 0 -40 -5 -51 -34 -77 -28 -25 -39
-29 -70 -24 -50 8 -81 46 -81 99 0 95 85 138 152 78z"/>
<path d="M12777 988 c-48 -106 -87 -196 -87 -200 0 -5 23 -8 50 -8 44 0 52 3
62 25 10 23 16 25 85 25 69 0 74 -2 85 -25 10 -22 17 -25 65 -25 29 0 53 2 53
4 0 2 -40 91 -89 197 -118 260 -108 260 -224 7z m135 -28 l17 -40 -40 0 c-21
0 -39 2 -39 5 0 10 34 75 39 75 3 0 14 -18 23 -40z"/>
<path d="M13667 1153 c-23 -45 -167 -362 -167 -368 0 -3 23 -5 50 -5 44 0 52
3 62 25 11 24 16 25 88 25 72 0 77 -1 88 -25 10 -22 18 -25 62 -25 27 0 50 4
50 8 0 5 -40 94 -88 198 -70 151 -92 190 -109 192 -16 2 -26 -5 -36 -25z m56
-193 l15 -40 -38 0 -38 0 15 40 c9 22 19 40 23 40 4 0 14 -18 23 -40z"/>
<path d="M14220 1169 c-84 -25 -139 -101 -140 -192 0 -121 78 -199 201 -199
73 0 138 34 163 86 26 56 22 66 -28 66 -36 0 -50 -6 -74 -30 -51 -51 -119 -34
-148 37 -18 42 -4 105 29 128 36 25 94 19 123 -12 18 -19 36 -27 65 -29 49 -3
57 11 34 61 -32 67 -143 108 -225 84z"/>
<path d="M14646 1166 c-80 -30 -126 -99 -126 -190 0 -71 17 -113 63 -153 133
-116 337 -25 337 152 0 142 -141 240 -274 191z m142 -122 c34 -39 31 -107 -7
-145 -39 -39 -80 -39 -123 0 -28 25 -33 36 -33 74 0 95 102 140 163 71z"/>
<path d="M15696 1170 c-72 -22 -110 -98 -82 -164 19 -46 52 -65 127 -76 64 -9
86 -25 67 -47 -14 -18 -83 -16 -102 2 -9 9 -33 15 -60 15 -53 0 -59 -14 -27
-66 27 -44 94 -69 163 -61 61 8 95 30 122 79 18 32 18 40 7 78 -10 35 -19 45
-54 60 -23 10 -63 21 -89 24 -56 8 -79 29 -56 53 21 20 68 20 83 -1 8 -11 27
-16 59 -16 42 0 46 2 46 24 0 72 -110 124 -204 96z"/>
<path d="M16510 1169 c-84 -25 -139 -101 -140 -192 0 -121 78 -199 201 -199
73 0 138 34 163 86 26 56 22 66 -28 66 -36 0 -50 -6 -74 -30 -51 -51 -119 -34
-148 37 -18 42 -4 105 29 128 35 24 90 19 121 -11 19 -20 38 -27 71 -29 51 -3
55 5 29 61 -31 66 -143 107 -224 83z"/>
<path d="M17211 1158 c-51 -25 -76 -72 -67 -126 9 -59 67 -102 136 -102 62 0
95 -41 47 -59 -29 -11 -77 -3 -84 15 -3 9 -22 14 -54 14 -44 0 -49 -2 -49 -23
0 -54 77 -107 155 -107 49 0 117 30 139 61 19 28 21 107 2 131 -15 20 -76 48
-103 48 -36 0 -93 21 -93 34 0 36 73 53 95 22 8 -11 27 -16 59 -16 41 0 46 2
46 23 0 34 -28 67 -74 88 -54 25 -101 24 -155 -3z"/>
<path d="M17596 1170 c-70 -21 -109 -98 -83 -162 20 -48 48 -65 126 -77 74
-12 92 -24 71 -45 -8 -8 -24 -16 -35 -17 -28 -4 -75 9 -75 21 0 6 -22 10 -50
10 -56 0 -61 -9 -34 -61 9 -18 32 -38 57 -50 131 -59 277 32 236 149 -14 41
-44 59 -122 72 -81 14 -102 34 -68 61 25 21 53 18 82 -7 8 -8 34 -14 57 -14
38 0 42 2 42 24 0 71 -111 123 -204 96z"/>
<path d="M17975 1156 c-85 -44 -124 -130 -103 -228 13 -62 44 -107 91 -131
126 -65 268 -3 298 128 30 135 -49 242 -186 252 -39 4 -61 -1 -100 -21z m135
-91 c37 -19 50 -43 50 -93 0 -73 -65 -119 -131 -92 -73 31 -78 147 -8 186 32
18 54 17 89 -1z"/>
<path d="M18334 1149 c3 -17 6 -80 6 -140 l0 -109 49 0 48 0 7 61 c3 34 6 97
6 140 l0 79 -61 0 -61 0 6 -31z"/>
<path d="M6220 1014 l0 -156 33 -33 c74 -74 207 -65 257 18 17 28 20 51 20
180 l0 147 -50 0 -50 0 0 -138 c0 -151 -4 -162 -55 -162 -51 0 -55 11 -55 162
l0 138 -50 0 -50 0 0 -156z"/>
<path d="M8066 1162 c-2 -4 -4 -91 -3 -192 l2 -185 53 -3 52 -3 0 83 0 82 38
-37 c21 -20 42 -37 47 -37 5 0 26 17 47 37 l38 37 0 -82 0 -82 55 0 55 0 0
195 0 195 -25 0 c-13 0 -28 -6 -32 -14 -4 -8 -37 -45 -73 -82 l-65 -67 -75 81
c-68 75 -100 96 -114 74z"/>
<path d="M8548 1148 c-2 -13 -2 -101 0 -195 l3 -173 49 0 50 0 0 50 0 50 53 0
c66 0 115 25 139 70 38 72 12 169 -53 202 -26 14 -59 18 -136 18 -98 0 -102
-1 -105 -22z m196 -84 c9 -8 16 -26 16 -39 0 -35 -26 -55 -71 -55 l-39 0 0 55
0 55 39 0 c23 0 46 -7 55 -16z"/>
<path d="M9870 975 l0 -195 55 0 55 0 0 60 0 60 60 0 60 0 0 50 0 50 -60 0
-60 0 0 40 0 40 70 0 70 0 0 45 0 45 -125 0 -125 0 0 -195z"/>
<path d="M10620 1125 c0 -38 3 -45 20 -45 19 0 20 -7 20 -104 0 -101 -1 -105
-22 -108 -19 -2 -24 -10 -26 -46 l-3 -43 103 3 c90 3 103 5 106 21 7 33 -7 67
-27 67 -17 0 -20 9 -23 83 -4 107 0 127 23 127 16 0 19 8 19 45 l0 45 -95 0
-95 0 0 -45z"/>
<path d="M11030 975 l0 -195 125 0 125 0 0 45 0 45 -76 0 -75 0 3 33 3 32 68
3 68 3 -3 42 -3 42 -67 3 c-65 3 -68 4 -68 27 0 24 2 25 75 25 l75 0 0 45 0
45 -125 0 -125 0 0 -195z"/>
<path d="M11367 998 c1 -95 3 -183 3 -195 0 -21 5 -23 50 -23 l50 0 0 60 0 59
63 3 62 3 0 45 0 45 -62 3 -63 3 0 39 0 40 70 0 70 0 0 45 0 45 -122 0 -123 0
2 -172z"/>
<path d="M11687 983 c2 -104 3 -191 3 -195 0 -5 56 -8 125 -8 l125 0 0 45 0
45 -75 0 -75 0 0 35 0 35 65 0 65 0 0 45 0 45 -65 0 c-63 0 -65 1 -65 25 0 24
2 25 70 25 l70 0 0 45 0 45 -122 0 -123 0 2 -187z"/>
<path d="M11980 1125 l0 -45 50 0 50 0 0 -150 0 -150 50 0 50 0 0 150 0 150
50 0 50 0 0 45 0 45 -150 0 -150 0 0 -45z"/>
<path d="M12330 1027 c0 -161 11 -196 71 -232 47 -27 138 -27 175 1 65 48 69
62 69 222 l0 147 -47 3 -48 3 0 -128 c0 -145 -10 -173 -60 -173 -54 0 -60 17
-60 166 l0 134 -50 0 -50 0 0 -143z"/>
<path d="M13139 1161 c-1 -6 -1 -18 -1 -26 0 -8 0 -92 1 -186 l1 -171 109 4
c105 3 111 4 148 34 57 47 77 87 77 158 0 74 -27 129 -81 166 -32 22 -49 25
-145 28 -73 3 -108 0 -109 -7z m206 -111 c30 -28 38 -73 21 -113 -17 -43 -37
-58 -86 -64 l-40 -6 0 108 0 108 41 -6 c23 -3 51 -15 64 -27z"/>
<path d="M14990 975 l0 -195 55 0 55 0 0 82 0 82 38 -37 c21 -20 42 -37 47
-37 5 0 26 17 47 37 l38 37 0 -82 0 -83 53 3 52 3 0 190 c0 185 -1 190 -21
193 -15 2 -40 -18 -94 -78 -39 -44 -75 -80 -79 -80 -3 0 -37 36 -76 80 -48 54
-77 79 -92 80 l-23 0 0 -195z"/>
<path d="M15980 1043 c0 -71 5 -144 10 -164 27 -96 152 -136 246 -78 54 33 64
69 64 228 l0 141 -50 0 -50 0 0 -134 c0 -149 -6 -166 -60 -166 -54 0 -60 17
-60 166 l0 134 -50 0 -50 0 0 -127z"/>
<path d="M16830 975 l0 -195 125 0 125 0 0 45 0 45 -75 0 -75 0 0 35 0 35 65
0 65 0 0 45 0 45 -65 0 c-62 0 -65 1 -65 25 0 23 3 24 73 27 l72 3 3 43 3 42
-125 0 -126 0 0 -195z"/>
<path d="M18362 874 c-32 -22 -30 -71 4 -86 50 -23 104 32 72 74 -20 24 -51
30 -76 12z"/>
</g>
</svg>
